# xmcd
#
# Track frame offsets: 
#        150
#        16927
#        38517
#        54175
#        70157
#        87685
#        102520
#        127027
#        147705
#        166192
#        184330
#
# Disc length: 2702 seconds
#
# Revision: 1
# Processed by: cddbd v1.5.2PL0 Copyright (c) Steve Scherf et al.
# Submitted via: ExactAudioCopy v0.99pb5
#
DISCID=990a8c0b
DTITLE=Miles Davis - Miles Davis Vol. 2
DYEAR=1954
DGENRE=Jazz
TTITLE0=Take-Off
TTITLE1=Weirdo
TTITLE2=Wouldn't You
TTITLE3=I Waited For You
TTITLE4=Ray's Idea (Alternative Master)
TTITLE5=Donna
TTITLE6=Well You Needn't
TTITLE7=The Leap
TTITLE8=Lazy Susan
TTITLE9=Tempus Fugit (Alternative Master)
TTITLE10=It Never Entered My Mind
EXTD=YEAR: 1954
EXTT0=
EXTT1=
EXTT2=
EXTT3=
EXTT4=
EXTT5=
EXTT6=
EXTT7=
EXTT8=
EXTT9=
EXTT10=
PLAYORDER=
